#N canvas 46 58 592 347 12;
#X msg 34 92 or two words;
#X msg 169 93 2 3;
#X obj 72 213 print result;
#X obj 16 8 cnv 15 550 40 empty empty adv1 10 22 0 24 #fcac44 #000000
0;
#X text 173 214 watch the console!;
#X text 134 117 send the object various messages;
#X obj 66 127 nbx 3 18 0 100 0 0 empty empty empty 0 -6 0 14 #fcfcfc
#000000 #000000 0 256;
#X obj 49 172 adv1 one;
#X obj 48 260 prepend set;
#X text 140 260 prepend is defined as an alias of adv1;
#X text 146 20 flext tutorial \, (C)2002-2022 grrrr.org;
#X msg 48 299;
#X connect 0 0 7 0;
#X connect 1 0 7 0;
#X connect 6 0 7 0;
#X connect 7 0 2 0;
#X connect 7 0 8 0;
#X connect 8 0 11 0;
