#N canvas 383 293 460 310 12;
#X msg 39 34 or two words;
#X msg 154 35 2 3;
#X msg 47 252 one or two words;
#X obj 85 154 print result;
#X obj 69 123 adv1 one;
#X obj 47 224 prepend set;
#X text 146 217 you can also use "prepend" if "adv1" has already been
loaded!;
#X connect 0 0 4 0;
#X connect 1 0 4 0;
#X connect 4 0 3 0;
#X connect 4 0 5 0;
#X connect 5 0 2 0;
