#N canvas 46 58 553 336 12;
#X msg 49 92 or two words;
#X msg 169 93 2 3;
#X msg 48 291 one 2 3;
#X obj 72 213 print result;
#X obj 49 172 adv1 one;
#X obj 48 263 prepend set;
#X text 154 255 you can also use "prepend";
#X text 152 272 if adv1 has already been loaded;
#X obj 16 8 cnv 15 500 40 empty empty adv1 10 22 0 24 -260818 -1 0
;
#X text 197 8 flext tutorial \, (C)2002 Thomas Grill;
#X text 197 28 http://www.parasitaere-kapazitaeten.net;
#X text 181 212 watch the console!;
#X msg 69 121 6;
#X text 210 110 send the object various messages;
#X connect 0 0 4 0;
#X connect 1 0 4 0;
#X connect 4 0 3 0;
#X connect 4 0 5 0;
#X connect 5 0 2 0;
#X connect 12 0 4 0;
