#N canvas 329 97 591 352 12;
#X msg 26 97 help;
#X msg 123 146 born;
#X msg 172 147 to;
#X msg 214 149 hula;
#X msg 228 230 yeah;
#X msg 228 192 hula 1;
#X text 280 231 other symbol;
#X text 261 150 tag without argument;
#X text 297 190 tag and argument;
#X text 72 97 print a help message;
#X obj 16 7 cnv 15 550 40 empty empty adv2 10 22 0 24 -260818 -1 0
;
#X text 146 27 http://www.parasitaere-kapazitaeten.net;
#X obj 148 293 adv2;
#X text 21 49 this is identical to the simple3 example;
#X text 145 9 flext tutorial \, (C)2002 \, 2003 Thomas Grill;
#X connect 0 0 12 0;
#X connect 1 0 12 0;
#X connect 2 0 12 0;
#X connect 3 0 12 0;
#X connect 4 0 12 0;
#X connect 5 0 12 0;
