#N canvas 82 94 603 359 12;
#X obj 16 7 cnv 15 550 40 empty empty adv3 10 22 0 24 #fcac44 #000000
0;
#X obj 305 303 bng 15 250 50 0 empty empty empty 0 -6 0 8 #fcfcfc #000000
#000000;
#X obj 223 300 nbx 5 18 -1e+37 1e+37 0 0 empty empty empty 0 -6 0 12
#dce4fc #000000 #000000 0 256;
#X msg 269 130 1 10;
#X msg 389 128 1;
#X msg 429 128 -1;
#X msg 469 128 2;
#X obj 88 129 bng 25 250 50 0 empty empty empty 0 -6 0 8 #fc2828 #000000
#000000;
#X msg 317 130 7 2;
#X text 325 300 end has been reached;
#X obj 157 127 nbx 5 18 -1e+37 1e+37 0 0 empty empty empty 0 -6 0 12
#dce4fc #000000 #000000 0 256;
#X msg 158 150 set \$1;
#X text 72 108 trigger;
#X text 147 108 set counter;
#X text 264 109 set bounds;
#X text 390 106 set step size;
#X msg 80 196 reset;
#X text 83 176 reset;
#X text 21 49 this is a port of IOhannes Zmoelnigs "counter" example
;
#X obj 229 266 adv3 2 5 1;
#X text 182 18 flext tutorial \, (C)2002-2022 grrrr.org;
#X connect 3 0 19 1;
#X connect 4 0 19 2;
#X connect 5 0 19 2;
#X connect 6 0 19 2;
#X connect 7 0 19 0;
#X connect 8 0 19 1;
#X connect 10 0 11 0;
#X connect 11 0 19 0;
#X connect 16 0 19 0;
#X connect 19 0 2 0;
#X connect 19 1 1 0;
