#N canvas 46 58 582 337 12;
#X msg 49 92 or two words;
#X msg 169 93 2 3;
#X msg 48 291 one 6;
#X obj 72 213 print result;
#X obj 49 172 adv1 one;
#X obj 48 263 prepend set;
#X text 157 257 you can also use "prepend";
#X obj 16 8 cnv 15 550 40 empty empty adv1 10 22 0 24 -260818 -1 0
;
#X text 197 8 flext tutorial \, (C)2002 Thomas Grill;
#X text 197 28 http://www.parasitaere-kapazitaeten.net;
#X text 187 214 watch the console!;
#X msg 69 121 6;
#X text 210 110 send the object various messages;
#X text 155 274 (if adv1 has already been loaded);
#X connect 0 0 4 0;
#X connect 1 0 4 0;
#X connect 4 0 3 0;
#X connect 4 0 5 0;
#X connect 5 0 2 0;
#X connect 11 0 4 0;
