#N canvas 95 81 591 424 12;
#X text 114 273 attribute as a creation arg;
#X msg 160 98 getattributes;
#X text 167 319 there is one additional outlet;
#X text 167 334 for all attribute-enabled objects;
#X obj 150 367 print;
#X msg 160 141 getarg;
#X text 12 92 trigger output;
#X msg 160 203 arg \$1;
#X text 230 191 set attribute "arg";
#X text 295 98 query object attributes (watch console);
#X text 228 142 query attribute "arg" (watch console);
#X obj 16 8 cnv 15 550 40 empty empty attr1 10 22 0 24 #fcac44 #000000
0;
#X text 26 388 result;
#X obj 23 114 nbx 4 16 -999 999 0 0 empty empty empty 0 -6 0 12 #fce0c0
#000000 #000000 0 256;
#X obj 29 370 nbx 7 16 -1e+37 1e+37 0 0 empty empty empty 0 -6 0 12
#dce4fc #000000 #000000 0 256;
#X obj 161 181 nbx 4 16 -999 999 0 0 empty empty empty 0 -6 0 12 #fce0c0
#000000 #000000 0 256;
#X text 175 18 flext tutorial \, (C)2002-2022 grrrr.org;
#X obj 59 296 attr1 @arg 3;
#X text 197 370 watch console!;
#X connect 1 0 17 0;
#X connect 5 0 17 0;
#X connect 7 0 17 0;
#X connect 13 0 17 0;
#X connect 15 0 7 0;
#X connect 17 0 14 0;
#X connect 17 1 4 0;
