#N canvas 87 93 585 403 12;
#X obj 15 8 cnv 15 550 40 empty empty bind1 10 22 0 24 #fcac44 #000000
0;
#X text 32 72 bind object to symbol;
#X msg 34 94 bind sym1;
#X msg 158 94 bind sym2;
#X msg 32 126 unbind sym1;
#X msg 157 125 unbind sym2;
#X text 27 159 bind object to symbol;
#X msg 29 181 bindmethod sym1;
#X msg 31 213 unbindmethod sym1;
#X msg 230 181 bindmethod sym2;
#X msg 233 212 unbindmethod sym2;
#X obj 25 357 print OUT;
#X text 121 356 watch the console!;
#X obj 354 103 nbx 5 14 -1e+37 1e+37 0 0 empty empty empty 0 -6 0 10
#fcfcc8 #000000 #000000 0 256;
#X obj 449 103 nbx 5 14 -1e+37 1e+37 0 0 empty empty empty 0 -6 0 10
#fcfcc8 #000000 #000000 0 256;
#X msg 354 122 test \$1;
#X msg 449 122 test \$1;
#X obj 354 155 s sym1;
#X obj 449 155 s sym2;
#X text 352 67 send message to bound;
#X text 353 81 object or method;
#X obj 348 272 r sym3;
#X text 347 250 receive forwarded message;
#X obj 348 298 print MSG;
#X text 59 250 receive forwarded message;
#X msg 60 271 sym3 myforward;
#X obj 205 280 nbx 5 14 -1e+37 1e+37 0 0 empty empty empty 0 -6 0 10
#fcfcc8 #000000 #000000 0 256;
#X msg 204 297 sym3 \$1;
#X text 186 19 flext tutorial \, (C)2002-2022 grrrr.org;
#X obj 26 328 bind1;
#X connect 2 0 29 0;
#X connect 3 0 29 0;
#X connect 4 0 29 0;
#X connect 5 0 29 0;
#X connect 7 0 29 0;
#X connect 8 0 29 0;
#X connect 9 0 29 0;
#X connect 10 0 29 0;
#X connect 13 0 15 0;
#X connect 14 0 16 0;
#X connect 15 0 17 0;
#X connect 16 0 18 0;
#X connect 21 0 23 0;
#X connect 25 0 29 1;
#X connect 26 0 27 0;
#X connect 27 0 29 1;
#X connect 29 0 11 0;
