#N canvas 89 99 585 322 12;
#X declare -lib lib1;
#X msg 100 203 arg \$1;
#X text 99 155 set arg;
#X msg 283 202 arg \$1;
#X text 282 156 set arg;
#X msg 470 205 arg \$1;
#X text 469 159 set arg;
#X text 23 154 trigger;
#X text 205 158 trigger;
#X text 389 159 trigger;
#X obj 16 8 cnv 15 550 40 empty empty lib1 10 22 0 24 #fcac44 #000000
0;
#X obj 28 178 nbx 4 16 -999 999 0 0 empty empty empty 0 -6 0 12 #fce0c0
#000000 #000000 0 256;
#X obj 99 177 nbx 4 16 -999 999 0 0 empty empty empty 0 -6 0 12 #fce0c0
#000000 #000000 0 256;
#X obj 210 178 nbx 4 16 -999 999 0 0 empty empty empty 0 -6 0 12 #fce0c0
#000000 #000000 0 256;
#X obj 282 180 nbx 4 16 -999 999 0 0 empty empty empty 0 -6 0 12 #fce0c0
#000000 #000000 0 256;
#X obj 392 180 nbx 4 16 -999 999 0 0 empty empty empty 0 -6 0 12 #fce0c0
#000000 #000000 0 256;
#X obj 470 183 nbx 4 16 -999 999 0 0 empty empty empty 0 -6 0 12 #fce0c0
#000000 #000000 0 256;
#X obj 28 272 nbx 7 16 -1e+37 1e+37 0 0 empty empty empty 0 -6 0 12
#dce4fc #000000 #000000 0 256;
#X obj 208 272 nbx 7 16 -1e+37 1e+37 0 0 empty empty empty 0 -6 0 12
#dce4fc #000000 #000000 0 256;
#X obj 390 272 nbx 7 16 -1e+37 1e+37 0 0 empty empty empty 0 -6 0 12
#dce4fc #000000 #000000 0 256;
#X text 25 56 In order to use the objects the library must have been
;
#X text 185 17 flext tutorial \, (C)2002-2022 grrrr.org;
#X obj 406 113 declare -lib lib1;
#X obj 28 239 lib1.+ @arg 3;
#X obj 208 241 lib1.- @arg 7;
#X obj 390 243 lib1.* @arg 2;
#X text 25 114 Or use the declare object (with paths set) like here:
;
#X text 24 73 loaded at Pd startup (with the "-lib lib1" argument \,
or in the startup objects list of the preferences);
#X connect 0 0 22 0;
#X connect 2 0 23 0;
#X connect 4 0 24 0;
#X connect 10 0 22 0;
#X connect 11 0 0 0;
#X connect 12 0 23 0;
#X connect 13 0 2 0;
#X connect 14 0 24 0;
#X connect 15 0 4 0;
#X connect 22 0 16 0;
#X connect 23 0 17 0;
#X connect 24 0 18 0;
