#N canvas 111 93 647 342 12;
#X msg 63 88 help;
#X msg 112 138 born;
#X msg 161 139 to;
#X msg 203 141 hula;
#X msg 217 178 hula 1;
#X text 250 142 tag without argument;
#X text 286 176 tag and argument;
#X text 109 88 print a help message;
#X obj 16 8 cnv 15 550 40 empty empty simple3 10 22 0 24 #fcac44 #000000
0;
#X msg 217 209 symbol yeah;
#X text 310 208 symbol message;
#X text 174 18 flext tutorial \, (C)2002-2022 grrrr.org;
#X obj 137 285 simple3;
#X msg 217 240 other tag;
#X text 296 240 other tag (unhandled);
#X connect 0 0 12 0;
#X connect 1 0 12 0;
#X connect 2 0 12 0;
#X connect 3 0 12 0;
#X connect 4 0 12 0;
#X connect 9 0 12 0;
#X connect 13 0 12 0;
