#N canvas 41 125 593 252 12;
#X obj 46 82 bng 25 250 50 0 empty empty empty 0 -6 0 8 #fce0c0 #000000
#000000;
#X text 78 88 bang to get audio system parameters;
#X obj 16 8 cnv 15 550 40 empty empty signal2 10 22 0 24 #fcac44 #000000
0;
#X obj 45 186 nbx 5 16 -1e+37 1e+37 0 0 empty empty empty 0 -6 0 12
#dce4fc #000000 #000000 0 256;
#X obj 137 186 nbx 5 16 -1e+37 1e+37 0 0 empty empty empty 0 -6 0 12
#dce4fc #000000 #000000 0 256;
#X text 40 203 samplerate;
#X text 134 203 blocksize;
#X text 251 20 flext tutorial \, (C)2002-2022 grrrr.org;
#X obj 46 130 signal2~;
#X msg 440 81 \; pd dsp 1;
#X text 437 59 start DSP;
#X connect 0 0 8 0;
#X connect 8 0 3 0;
#X connect 8 1 4 0;
