#N canvas 197 285 462 312 12;
#X msg 11 12 help;
#X obj 98 121 simple3 1 2 3;
#X msg 98 60 born;
#X msg 147 61 to;
#X msg 189 63 hula;
#X msg 312 62 yeah;
#X msg 241 65 hula 1;
#X connect 0 0 1 0;
#X connect 2 0 1 0;
#X connect 3 0 1 0;
#X connect 4 0 1 0;
#X connect 5 0 1 0;
#X connect 6 0 1 0;
