#N canvas 95 60 577 257 12;
#X obj 66 186 dac~;
#X obj 15 8 cnv 15 550 40 empty empty stk1 10 22 0 24 #fcac44 #000000
0;
#X text 184 118 adjust the volume;
#X obj 185 101 hsl 128 15 0.01 1 1 0 empty empty empty -2 -6 0 8 #fce0c0
#000000 #000000 0 1;
#X obj 76 132 *~ 0.3;
#X obj 76 86 stk1~;
#X msg 425 87 \; pd dsp 1;
#X text 425 65 start DSP;
#X text 181 17 flext tutorial \, (C)2002-2022 grrrr.org;
#X connect 3 0 4 1;
#X connect 4 0 0 0;
#X connect 4 0 0 1;
#X connect 5 0 4 0;
