#N canvas 92 67 584 392 12;
#X obj 56 348 dac~;
#X obj 15 8 cnv 15 550 40 empty empty sndobj1 10 22 0 24 #fcac44 #000000
0;
#X text 170 285 adjust the volume;
#X text 35 97 source;
#X obj 171 268 hsl 128 15 0.01 1 1 0 empty empty empty -2 -6 0 8 #fce0c0
#000000 #000000 0 1;
#X msg 160 148 shL \$1;
#X msg 218 148 shR \$1;
#X obj 244 84 hsl 128 15 0.5 2 1 0 empty empty empty -2 -6 0 8 #fce0c0
#000000 #000000 0 1;
#X obj 244 104 hsl 128 15 0.5 2 1 0 empty empty empty -2 -6 0 8 #fce0c0
#000000 #000000 0 1;
#X text 149 82 pitch left;
#X text 149 102 pitch right;
#X obj 31 119 osc~ 442;
#X obj 32 304 *~ 0.3;
#X obj 91 304 *~ 0.3;
#X obj 32 226 sndobj1~ @shL 0.7 @shR 1.2;
#X text 218 20 flext tutorial \, (C)2002-2022 grrrr.org;
#X msg 454 82 \; pd dsp 1;
#X text 454 61 start DSP;
#X connect 4 0 12 1;
#X connect 4 0 13 1;
#X connect 5 0 14 0;
#X connect 6 0 14 0;
#X connect 7 0 5 0;
#X connect 8 0 6 0;
#X connect 11 0 14 0;
#X connect 11 0 14 1;
#X connect 12 0 0 0;
#X connect 13 0 0 1;
#X connect 14 0 12 0;
#X connect 14 1 13 0;
