#N canvas 72 265 599 317 12;
#X obj 42 196 simple2 3;
#X text 121 177 default argument;
#X obj 16 8 cnv 15 550 40 empty empty simple2 10 22 0 24 #fcac44 #000000
0;
#X obj 41 110 nbx 4 16 -999 999 0 0 empty empty triggering 0 -6 0 12
#fce0c0 #000000 #000000 0 256;
#X obj 148 110 nbx 4 16 -999 999 0 0 empty empty non-triggering 0 -6
0 12 #fce0c0 #000000 #000000 0 256;
#X obj 42 239 nbx 7 16 -1e+37 1e+37 0 0 empty empty empty 0 -6 0 12
#dce4fc #000000 #000000 0 256;
#X text 167 19 flext tutorial \, (C)2002-2022 grrrr.org;
#X connect 0 0 5 0;
#X connect 3 0 0 0;
#X connect 4 0 0 1;
