#N canvas 97 70 594 364 12;
#X obj 48 319 dac~;
#X obj 15 8 cnv 15 550 40 empty empty stk2 10 22 0 24 #fcac44 #000000
0;
#X text 173 230 adjust the volume;
#X obj 174 213 hsl 128 15 0.01 1 1 0 empty empty empty -2 -6 0 8 #fce0c0
#000000 #000000 0 1;
#X obj 48 264 *~ 0.3;
#X obj 48 216 stk2~;
#X obj 105 264 *~ 0.3;
#X msg 163 140 shL \$1;
#X msg 221 140 shR \$1;
#X obj 247 78 hsl 128 15 0.5 2 1 0 empty empty empty -2 -6 0 8 #fce0c0
#000000 #000000 0 1;
#X obj 247 96 hsl 128 15 0.5 2 1 0 empty empty empty -2 -6 0 8 #fce0c0
#000000 #000000 0 1;
#X text 152 74 pitch left;
#X text 152 94 pitch right;
#X obj 48 79 osc~ 442;
#X text 180 21 flext tutorial \, (C)2002-2022 grrrr.org;
#X msg 466 89 \; pd dsp 1;
#X text 464 68 start DSP;
#X connect 3 0 4 1;
#X connect 3 0 6 1;
#X connect 4 0 0 0;
#X connect 5 0 4 0;
#X connect 5 1 6 0;
#X connect 6 0 0 1;
#X connect 7 0 5 0;
#X connect 8 0 5 0;
#X connect 9 0 7 0;
#X connect 10 0 8 0;
#X connect 13 0 5 0;
