#N canvas 329 97 539 308 12;
#X msg 11 12 help;
#X msg 123 84 born;
#X msg 172 85 to;
#X msg 214 87 hula;
#X msg 228 168 yeah;
#X msg 228 130 hula 1;
#X text 280 169 other symbol;
#X text 57 12 issue help message;
#X obj 148 231 simple3;
#X text 261 88 tag without argument;
#X text 297 128 tag and argument;
#X connect 0 0 8 0;
#X connect 1 0 8 0;
#X connect 2 0 8 0;
#X connect 3 0 8 0;
#X connect 4 0 8 0;
#X connect 5 0 8 0;
