#N canvas 120 103 586 291 12;
#X obj 250 121 hsl 128 15 0 1 0 0 empty empty empty 20 8 0 8 #fce0c0
#000000 #000000 0 1;
#X obj 28 121 osc~ 440;
#X obj 87 248 dac~;
#X obj 123 121 osc~ 880;
#X obj 16 8 cnv 15 550 40 empty empty signal1 10 22 0 24 #fcac44 #000000
0;
#X text 342 138 control the mixing;
#X text 166 210 adjust the volume;
#X text 25 102 source 1;
#X text 125 101 source 2;
#X obj 248 143 nbx 5 16 0 1 0 0 empty empty empty 0 -6 0 12 #fce0c0
#000000 #000000 0 256;
#X text 21 51 this is a port of IOhannes Zmoelnigs pan~ example;
#X text 21 66 done by Frank Barknecht;
#X text 183 17 flext tutorial \, (C)2002-2022 grrrr.org;
#X obj 97 175 signal1~;
#X msg 449 79 \; pd dsp 1;
#X text 447 58 start DSP;
#X obj 97 209 *~ 0.1;
#X connect 0 0 9 0;
#X connect 1 0 13 0;
#X connect 3 0 13 1;
#X connect 9 0 13 2;
#X connect 13 0 16 0;
#X connect 16 0 2 0;
#X connect 16 0 2 1;
