#N canvas 385 346 454 304 12;
#X floatatom 54 200 5 0 0;
#X floatatom 188 200 5 0 0;
#X msg 46 131 2;
#X msg 91 131 stop;
#X msg 184 132 2;
#X msg 229 132 stop;
#X obj 100 44 bng 25 250 50 0 empty empty empty 0 -6 0 8 -258699 -1
-1;
#X obj 192 44 bng 25 250 50 0 empty empty empty 0 -6 0 8 -258699 -1
-1;
#X text 92 23 start;
#X text 184 22 stop;
#X obj 53 167 thread2 10 aaa;
#X obj 187 167 thread2 100 bbb;
#X connect 2 0 10 0;
#X connect 3 0 10 0;
#X connect 4 0 11 0;
#X connect 5 0 11 0;
#X connect 6 0 2 0;
#X connect 6 0 4 0;
#X connect 7 0 3 0;
#X connect 7 0 5 0;
#X connect 10 0 0 0;
#X connect 11 0 1 0;
