#N canvas 78 77 589 309 12;
#X obj 39 91 bng 25 250 50 0 empty empty start 0 -6 0 8 #fce0c0 #000000
#000000;
#X obj 131 185 delay 200;
#X obj 228 185 delay 200;
#X obj 325 185 delay 200;
#X obj 421 185 delay 200;
#X obj 16 8 cnv 15 550 40 empty empty thread1 10 22 0 24 #fcac44 #000000
0;
#X obj 131 262 nbx 5 16 -1e+37 1e+37 0 0 empty empty empty 0 -6 0 12
#dce4fc #000000 #000000 0 256;
#X obj 229 263 nbx 5 16 -1e+37 1e+37 0 0 empty empty empty 0 -6 0 12
#dce4fc #000000 #000000 0 256;
#X obj 323 261 nbx 5 16 -1e+37 1e+37 0 0 empty empty empty 0 -6 0 12
#dce4fc #000000 #000000 0 256;
#X obj 423 261 nbx 5 16 -1e+37 1e+37 0 0 empty empty empty 0 -6 0 12
#dce4fc #000000 #000000 0 256;
#X obj 39 262 nbx 5 16 -1e+37 1e+37 0 0 empty empty empty 0 -6 0 12
#dce4fc #000000 #000000 0 256;
#X obj 422 232 thread1;
#X obj 324 231 thread1;
#X obj 228 233 thread1;
#X obj 130 231 thread1;
#X obj 39 229 thread1;
#X text 228 19 flext tutorial \, (C)2002-2022 grrrr.org;
#X text 76 86 Click to start;
#X text 76 107 When clicked twice \, the same thread is started a second
time;
#X text 76 129 The thread counts to 19 \, then stops;
#X connect 0 0 1 0;
#X connect 0 0 15 0;
#X connect 1 0 2 0;
#X connect 1 0 14 0;
#X connect 2 0 3 0;
#X connect 2 0 13 0;
#X connect 3 0 4 0;
#X connect 3 0 12 0;
#X connect 4 0 11 0;
#X connect 11 0 9 0;
#X connect 12 0 8 0;
#X connect 13 0 7 0;
#X connect 14 0 6 0;
#X connect 15 0 10 0;
