#N canvas 85 84 589 308 12;
#X msg 84 188 stop;
#X msg 255 192 stop;
#X obj 199 99 bng 25 250 50 0 empty empty empty 0 -6 0 8 #fce0c0 #000000
#000000;
#X obj 291 99 bng 25 250 50 0 empty empty empty 0 -6 0 8 #fce0c0 #000000
#000000;
#X text 191 78 start;
#X text 283 77 stop;
#X msg 39 188 0;
#X msg 210 192 0;
#X msg 423 190 stop;
#X msg 378 190 0;
#X msg 133 188 text;
#X msg 302 192 text;
#X msg 470 190 text;
#X obj 16 8 cnv 15 550 40 empty empty thread2 10 22 0 24 #fcac44 #000000
0;
#X obj 65 264 nbx 5 16 -1e+37 1e+37 0 0 empty empty empty 0 -6 0 12
#dce4fc #000000 #000000 0 256;
#X obj 231 265 nbx 5 16 -1e+37 1e+37 0 0 empty empty empty 0 -6 0 12
#dce4fc #000000 #000000 0 256;
#X obj 403 267 nbx 5 16 -1e+37 1e+37 0 0 empty empty empty 0 -6 0 12
#dce4fc #000000 #000000 0 256;
#X obj 404 229 thread2 50;
#X obj 232 229 thread2 15;
#X obj 66 228 thread2 3;
#X text 228 18 flext tutorial \, (C)2002-2022 grrrr.org;
#X connect 0 0 19 0;
#X connect 1 0 18 0;
#X connect 2 0 6 0;
#X connect 2 0 7 0;
#X connect 2 0 9 0;
#X connect 3 0 0 0;
#X connect 3 0 1 0;
#X connect 3 0 8 0;
#X connect 6 0 19 0;
#X connect 7 0 18 0;
#X connect 8 0 17 0;
#X connect 9 0 17 0;
#X connect 10 0 19 0;
#X connect 11 0 18 0;
#X connect 12 0 17 0;
#X connect 17 0 16 0;
#X connect 18 0 15 0;
#X connect 19 0 14 0;
