#N canvas 52 68 415 253 12;
#X msg 194 190 \; pd quit;
#X msg 304 76 \; pd dsp 1;
#N canvas 658 95 450 300 test 0;
#X restore 193 74 pd test;
#X obj 26 41 r r;
#X msg 27 189 \; pd-test obj 10 10 \$1;
#X text 20 11 This is for CI testing purposes;
#X obj 26 88 route del obj quit;
#X obj 303 52 loadbang;
#X obj 195 141 delay;
#X obj 27 163 list;
#X obj 27 136 delay;
#X obj 26 64 list trim;
#X connect 3 0 11 0;
#X connect 6 0 10 0;
#X connect 6 1 9 1;
#X connect 6 2 8 0;
#X connect 7 0 1 0;
#X connect 8 0 0 0;
#X connect 9 0 4 0;
#X connect 10 0 9 0;
#X connect 11 0 6 0;
