max v2;
#N vpatcher 348 125 705 420;
#P number 154 89 35 9 0 0 0 3 0 0 0 221 221 221 222 222 222 0 0 0;
#P message 77 195 183 196617 1sef;
#P newex 78 169 60 196617 prepend set;
#P message 94 87 17 196617 2.;
#P message 76 87 14 196617 1;
#P message 56 87 17 196617 jo;
#P message 194 88 28 196617 hann;
#P comment 57 70 56 196617 triggering;
#P flonum 228 88 38 9 0 0 0 3 0 0 0 221 221 221 222 222 222 0 0 0;
#P newex 78 143 45 196617 adv1 sef;
#P comment 151 70 70 196617 not triggering;
#P connect 8 0 9 0;
#P connect 5 0 1 0;
#P connect 6 0 1 0;
#P connect 7 0 1 0;
#P connect 1 0 8 0;
#P connect 4 0 1 1;
#P connect 2 0 1 1;
#P connect 10 0 1 1;
#P pop;
