max v2;
#N vpatcher 206 339 600 609;
#P comment 101 59 188 196617 int message - there's no method for int: float method is called;
#P message 28 33 17 196617 1.;
#P flonum 57 33 56 9 0 0 0 3 0 0 0 221 221 221 222 222 222 0 0 0;
#P message 73 93 17 196617 0.;
#P message 73 62 14 196617 2;
#P newex 29 137 43 196617 simple1;
#P flonum 29 166 50 9 0 0 0 3 0 0 0 221 221 221 222 222 222 0 0 0;
#P comment 129 33 100 196617 float messages;
#P comment 100 94 59 196617 special case;
#P connect 4 0 3 0;
#P connect 5 0 3 0;
#P connect 6 0 3 0;
#P connect 7 0 3 0;
#P connect 3 0 2 0;
#P pop;
