max v2;
#N vpatcher 40 55 440 355;
#P number 196 179 35 9 0 0 0 3 0 0 0 221 221 221 222 222 222 0 0 0;
#P number 62 181 35 9 0 0 0 3 0 0 0 221 221 221 222 222 222 0 0 0;
#P comment 185 29 33 196617 stop;
#P button 184 46 26 0;
#P button 109 46 26 0;
#P message 239 125 27 196617 stop;
#P message 89 124 27 196617 stop;
#P message 196 125 26 196617 100;
#P message 62 124 14 196617 0;
#P newex 196 149 82 196617 thread2 100 bbb;
#P newex 62 149 75 196617 thread2 10 aaa;
#P comment 107 29 33 196617 start;
#P connect 7 0 3 0;
#P connect 3 0 1 0;
#P connect 5 0 1 0;
#P connect 1 0 10 0;
#P connect 8 0 5 0;
#P connect 7 0 4 0;
#P connect 4 0 2 0;
#P connect 6 0 2 0;
#P connect 2 0 11 0;
#P connect 8 0 6 0;
#P pop;
